# xmcd
#
# Track frame offsets: 
#        150
#        15109
#        32805
#        54228
#        68129
#        89618
#        107970
#        127576
#        144077
#        161008
#        176026
#        194943
#        209538
#
# Disc length: 3032 seconds
#
# Revision: 0
# Processed by: cddbd v1.5.2PL0 Copyright (c) Steve Scherf et al.
# Submitted via: ExactAudioCopyFreeDBPlugin 1.0
#
DISCID=b10bd60d
DTITLE=1uppers - 1uppers
DYEAR=2012
DGENRE=Country
TTITLE0=Maybe, Probably
TTITLE1=Punch It In
TTITLE2=Ophelia
TTITLE3=Cadillac Truck
TTITLE4=Fallback
TTITLE5=How Soon Is Now?
TTITLE6=Path Not Taken
TTITLE7=The Rest
TTITLE8=Silver Drawer
TTITLE9=Your New Friends
TTITLE10=All Over
TTITLE11=Halfway Home
TTITLE12=In Jake
EXTD=
EXTT0=
EXTT1=
EXTT2=
EXTT3=
EXTT4=
EXTT5=
EXTT6=
EXTT7=
EXTT8=
EXTT9=
EXTT10=
EXTT11=
EXTT12=
PLAYORDER=
